<?xml version="1.0" encoding="UTF-8" standalone="no"?>
<svg
   width="500"
   zoomAndPan="magnify"
   viewBox="0 0 375 374.999991"
   height="500"
   preserveAspectRatio="xMidYMid meet"
   version="1.0"
   id="svg120"
   sodipodi:docname="MK.svg"
   inkscape:version="1.2.2 (b0a8486, 2022-12-01)"
   xmlns:inkscape="http://www.inkscape.org/namespaces/inkscape"
   xmlns:sodipodi="http://sodipodi.sourceforge.net/DTD/sodipodi-0.dtd"
   xmlns="http://www.w3.org/2000/svg"
   xmlns:svg="http://www.w3.org/2000/svg">
  <sodipodi:namedview
     id="namedview122"
     pagecolor="#ffffff"
     bordercolor="#000000"
     borderopacity="0.25"
     inkscape:showpageshadow="2"
     inkscape:pageopacity="0.0"
     inkscape:pagecheckerboard="0"
     inkscape:deskcolor="#d1d1d1"
     showgrid="false"
     inkscape:zoom="2.2727252"
     inkscape:cx="235.18021"
     inkscape:cy="308.44028"
     inkscape:window-width="1470"
     inkscape:window-height="806"
     inkscape:window-x="0"
     inkscape:window-y="37"
     inkscape:window-maximized="0"
     inkscape:current-layer="svg120" />
  <defs
     id="defs94">
    <g
       id="g86" />
    <clipPath
       id="a808ce7204">
      <path
         d="M 62.6875 224 L 277.9375 224 L 277.9375 259.496094 L 62.6875 259.496094 Z M 62.6875 224 "
         clip-rule="nonzero"
         id="path88" />
    </clipPath>
    <clipPath
       id="828db89f19">
      <path
         d="M 91 115.550781 L 250 115.550781 L 250 216 L 91 216 Z M 91 115.550781 "
         clip-rule="nonzero"
         id="path91" />
    </clipPath>
  </defs>
  <g
     clip-path="url(#a808ce7204)"
     id="g98"
     style="fill:#ffffff">
    <path
       fill="#000000"
       d="M 201.367188 250.4375 L 139.257812 250.4375 C 138.828125 250.4375 138.554688 249.984375 138.753906 249.605469 L 143.535156 240.378906 C 143.632812 240.191406 143.824219 240.074219 144.039062 240.074219 L 196.585938 240.074219 C 196.796875 240.074219 196.992188 240.191406 197.089844 240.378906 L 201.871094 249.605469 C 202.066406 249.984375 201.792969 250.4375 201.367188 250.4375 Z M 276.566406 251.484375 L 250.84375 225.707031 C 249.964844 224.824219 248.777344 224.332031 247.53125 224.332031 L 93.089844 224.332031 C 91.847656 224.332031 90.65625 224.824219 89.777344 225.707031 L 64.058594 251.484375 C 63.179688 252.363281 62.6875 253.558594 62.6875 254.804688 C 62.6875 257.394531 64.785156 259.496094 67.371094 259.496094 L 273.253906 259.496094 C 275.839844 259.496094 277.9375 257.394531 277.9375 254.804688 C 277.9375 253.558594 277.445312 252.363281 276.566406 251.484375 "
       fill-opacity="1"
       fill-rule="nonzero"
       id="path96"
       style="fill:#ffffff" />
  </g>
  <g
     clip-path="url(#828db89f19)"
     id="g102"
     style="fill:#ffffff">
    <path
       fill="#000000"
       d="M 241.773438 115.597656 L 98.847656 115.597656 C 94.714844 115.597656 91.332031 118.992188 91.332031 123.136719 L 91.332031 208.183594 C 91.332031 212.328125 94.714844 215.71875 98.847656 215.71875 L 241.773438 215.71875 C 245.910156 215.71875 249.292969 212.328125 249.292969 208.183594 L 249.292969 123.136719 C 249.292969 118.992188 245.910156 115.597656 241.773438 115.597656 Z M 240.589844 124.320312 L 240.589844 206.996094 L 100.03125 206.996094 L 100.03125 124.320312 L 240.589844 124.320312 "
       fill-opacity="1"
       fill-rule="nonzero"
       id="path100"
       style="fill:#ffffff" />
  </g>
  <rect
     style="fill:#000000;stroke-width:0.75"
     id="rect334"
     width="142.39293"
     height="83.531418"
     x="100.05812"
     y="123.8724" />
  <g
     inkscape:groupmode="layer"
     id="layer1"
     inkscape:label="Layer 1" />
  <g
     fill="#000000"
     fill-opacity="1"
     id="g118"
     style="fill:#ffffff">
    <g
       transform="translate(176.999329, 181.218672)"
       id="g116"
       style="fill:#ffffff">
      <g
         id="g114"
         style="fill:#ffffff">
        <path
           d="M 1.359375 -5.28125 L 4.53125 -6.140625 L 4.53125 -25.421875 C 4.53125 -26.285156 4.46875 -26.859375 4.34375 -27.140625 C 4.226562 -27.429688 3.90625 -27.695312 3.375 -27.9375 L 1.265625 -29.140625 L 1.40625 -33.921875 L 17.109375 -33.921875 L 17.359375 -28.78125 L 13.640625 -27.78125 L 13.640625 -18.3125 L 22.453125 -27.828125 C 22.578125 -27.960938 22.640625 -28.148438 22.640625 -28.390625 C 22.640625 -28.554688 22.59375 -28.707031 22.5 -28.84375 L 21.03125 -30.59375 L 21.59375 -33.921875 L 33.265625 -33.921875 L 33.875 -30.5 L 22.34375 -18.171875 L 34.671875 -2.265625 L 34.671875 0 L 25.0625 0 L 13.640625 -15.15625 L 13.640625 -8.15625 C 13.640625 -7.414062 13.695312 -6.910156 13.8125 -6.640625 C 13.925781 -6.367188 14.238281 -6.101562 14.75 -5.84375 L 17.40625 -4.328125 L 17.21875 0 L 1.609375 0 Z M 1.359375 -5.28125 "
           id="path112"
           style="fill:#ffffff" />
      </g>
    </g>
  </g>
  <g
     fill="#000000"
     fill-opacity="1"
     id="g110"
     style="fill:#ffffff">
    <g
       transform="translate(129.084049, 181.218672)"
       id="g108"
       style="fill:#ffffff">
      <g
         id="g106"
         style="fill:#ffffff">
        <path
           d="M 11.46875 -22.25 L 10.375 -7.34375 L 10.375 -7.140625 C 10.375 -6.503906 10.609375 -6.085938 11.078125 -5.890625 L 14.1875 -4.578125 L 13.6875 0 L 1.15625 0 L 0.65625 -4.484375 L 2.96875 -5.890625 L 5.84375 -25.3125 C 5.875 -25.550781 5.890625 -25.835938 5.890625 -26.171875 C 5.890625 -26.578125 5.796875 -26.878906 5.609375 -27.078125 C 5.421875 -27.273438 5.078125 -27.523438 4.578125 -27.828125 L 2.265625 -29.140625 L 2.5625 -33.921875 L 17.015625 -33.921875 L 24.203125 -10.46875 L 31.359375 -33.921875 L 44.84375 -33.921875 L 45.046875 -28.640625 L 41.828125 -27.828125 L 44.546875 -8.109375 C 44.640625 -7.429688 44.78125 -6.90625 44.96875 -6.53125 C 45.15625 -6.164062 45.582031 -5.566406 46.25 -4.734375 L 47.3125 -3.375 L 47 0 L 32.015625 0 L 31.5625 -4.625 L 35.6875 -5.6875 L 33.96875 -22.546875 L 27.53125 0.203125 L 18.921875 0.953125 Z M 11.46875 -22.25 "
           id="path104"
           style="fill:#ffffff" />
      </g>
    </g>
  </g>
  <text
     xml:space="preserve"
     style="font-size:9px;fill:#ffffff;stroke-width:0.75"
     x="39.377506"
     y="279.69928"
     id="text182"><tspan
       sodipodi:role="line"
       id="tspan180"
       style="font-style:normal;font-variant:normal;font-weight:bold;font-stretch:normal;font-size:8px;font-family:sans-serif;-inkscape-font-specification:'sans-serif, Bold';font-variant-ligatures:normal;font-variant-caps:normal;font-variant-numeric:normal;font-variant-east-asian:normal;fill:#ffffff;stroke-width:0.75"
       x="39.377506"
       y="279.69928">Logo MK © 2023 by Maša Kraner is licensed under CC BY-NC-SA 4.0 </tspan></text>
</svg>
